<svg width="560" height="510" viewBox="0 0 560 510" fill="none" xmlns="http://www.w3.org/2000/svg">
<g filter="url(#filter0_d_8_36)">
<path fill-rule="evenodd" clip-rule="evenodd" d="M496.148 82.9145C534.174 107.535 500.802 172.095 510.512 216.343C520.102 260.045 562.926 298.275 552.981 341.898C543.032 385.537 494.473 407.82 460.275 436.696C430.873 461.523 404.03 498.965 365.566 500.145C324.118 501.416 298.041 447.794 256.859 442.936C222.633 438.898 194.699 476.54 160.241 475.924C121.463 475.231 79.2797 466.176 51.3524 439.264C23.3737 412.302 2.262 369.612 10.5203 331.644C19.546 290.148 95.2465 280.921 95.03 238.455C94.7178 177.229 -17.1503 133.906 9.23054 78.6545C32.1409 30.6712 115.68 104.889 166.41 88.9577C206.769 76.2835 213.741 -2.6526 255.867 1.2007C300.273 5.26256 295.792 90.2965 338.009 104.654C389.024 122.003 450.916 53.6289 496.148 82.9145Z" fill="#121212"/>
<path fill-rule="evenodd" clip-rule="evenodd" d="M496.148 82.9145C534.174 107.535 500.802 172.095 510.512 216.343C520.102 260.045 562.926 298.275 552.981 341.898C543.032 385.537 494.473 407.82 460.275 436.696C430.873 461.523 404.03 498.965 365.566 500.145C324.118 501.416 298.041 447.794 256.859 442.936C222.633 438.898 194.699 476.54 160.241 475.924C121.463 475.231 79.2797 466.176 51.3524 439.264C23.3737 412.302 2.262 369.612 10.5203 331.644C19.546 290.148 95.2465 280.921 95.03 238.455C94.7178 177.229 -17.1503 133.906 9.23054 78.6545C32.1409 30.6712 115.68 104.889 166.41 88.9577C206.769 76.2835 213.741 -2.6526 255.867 1.2007C300.273 5.26256 295.792 90.2965 338.009 104.654C389.024 122.003 450.916 53.6289 496.148 82.9145Z" fill="black" fill-opacity="0.2"/>
<path fill-rule="evenodd" clip-rule="evenodd" d="M496.148 82.9145C534.174 107.535 500.802 172.095 510.512 216.343C520.102 260.045 562.926 298.275 552.981 341.898C543.032 385.537 494.473 407.82 460.275 436.696C430.873 461.523 404.03 498.965 365.566 500.145C324.118 501.416 298.041 447.794 256.859 442.936C222.633 438.898 194.699 476.54 160.241 475.924C121.463 475.231 79.2797 466.176 51.3524 439.264C23.3737 412.302 2.262 369.612 10.5203 331.644C19.546 290.148 95.2465 280.921 95.03 238.455C94.7178 177.229 -17.1503 133.906 9.23054 78.6545C32.1409 30.6712 115.68 104.889 166.41 88.9577C206.769 76.2835 213.741 -2.6526 255.867 1.2007C300.273 5.26256 295.792 90.2965 338.009 104.654C389.024 122.003 450.916 53.6289 496.148 82.9145Z" stroke="#FFBB00" stroke-width="2"/>
</g>
<defs>
<filter id="filter0_d_8_36" x="0.203613" y="0.0641479" width="559.264" height="509.103" filterUnits="userSpaceOnUse" color-interpolation-filters="sRGB">
<feFlood flood-opacity="0" result="BackgroundImageFix"/>
<feColorMatrix in="SourceAlpha" type="matrix" values="0 0 0 0 0 0 0 0 0 0 0 0 0 0 0 0 0 0 127 0" result="hardAlpha"/>
<feOffset dy="4"/>
<feGaussianBlur stdDeviation="2"/>
<feComposite in2="hardAlpha" operator="out"/>
<feColorMatrix type="matrix" values="0 0 0 0 0 0 0 0 0 0 0 0 0 0 0 0 0 0 0.25 0"/>
<feBlend mode="normal" in2="BackgroundImageFix" result="effect1_dropShadow_8_36"/>
<feBlend mode="normal" in="SourceGraphic" in2="effect1_dropShadow_8_36" result="shape"/>
</filter>
</defs>
</svg>
